HIERARCHY
ROOT Hips
{
	OFFSET 0.000000 0.000000 0.000000
	CHANNELS 6 Xposition Yposition Zposition Xrotation Yrotation Zrotation
	JOINT C_ctrl
	{
		OFFSET 0.000000 35.040482 -0.000011
		CHANNELS 3 Xrotation Yrotation Zrotation
		JOINT Bip01
		{
			OFFSET -41.537640 41.789009 -0.000007
			CHANNELS 3 Xrotation Yrotation Zrotation
			JOINT Bip01_Pelvis
			{
				OFFSET -2.462887 0.000000 0.000000
				CHANNELS 3 Xrotation Yrotation Zrotation
				JOINT BN_Tail_01
				{
					OFFSET -11.399368 7.351341 -0.000013
					CHANNELS 3 Xrotation Yrotation Zrotation
					JOINT BN_Tail_02
					{
						OFFSET -11.365196 -0.343025 0.000012
						CHANNELS 3 Xrotation Yrotation Zrotation
						JOINT BN_Tail_03
						{
							OFFSET -15.076256 -0.454979 0.000017
							CHANNELS 3 Xrotation Yrotation Zrotation
							JOINT BN_Tail_04
							{
								OFFSET -17.395691 -0.525002 0.000016
								CHANNELS 3 Xrotation Yrotation Zrotation
								JOINT BN_Tail_05
								{
									OFFSET -16.699837 -0.504005 0.000016
									CHANNELS 3 Xrotation Yrotation Zrotation
									End Site
									{
										OFFSET 0.503998 -16.699829 0.000067
									}
								}
							}
						}
					}
				}
				JOINT Bip01_Spine
				{
					OFFSET 8.297798 5.916809 -0.000020
					CHANNELS 3 Xrotation Yrotation Zrotation
					JOINT Bip01_R_Thigh
					{
						OFFSET -8.297779 -5.916794 10.541781
						CHANNELS 3 Xrotation Yrotation Zrotation
						JOINT Bip01_R_Calf
						{
							OFFSET 5.631542 -22.906792 0.862690
							CHANNELS 3 Xrotation Yrotation Zrotation
							JOINT Bip01_R_HorseLink
							{
								OFFSET -16.984341 -19.231926 -3.555767
								CHANNELS 3 Xrotation Yrotation Zrotation
								JOINT Bip01_R_Foot
								{
									OFFSET 4.290367 -24.783146 0.578056
									CHANNELS 3 Xrotation Yrotation Zrotation
									JOINT Bip01_R_Toe0
									{
										OFFSET 3.561211 -5.815116 0.760802
										CHANNELS 3 Xrotation Yrotation Zrotation
										JOINT Bip01_R_Toe0Nub
										{
											OFFSET 16.135469 0.002017 1.534789
											CHANNELS 3 Xrotation Yrotation Zrotation
											End Site
											{
												OFFSET -0.000002 16.208284 -0.000056
											}
										}
									}
								}
							}
						}
					}
					JOINT Bip01_L_Thigh
					{
						OFFSET -8.297813 -5.916832 -10.541739
						CHANNELS 3 Xrotation Yrotation Zrotation
						JOINT Bip01_L_Calf
						{
							OFFSET 5.631535 -22.906792 -0.862625
							CHANNELS 3 Xrotation Yrotation Zrotation
							JOINT Bip01_L_HorseLink
							{
								OFFSET -16.984318 -19.231949 3.555875
								CHANNELS 3 Xrotation Yrotation Zrotation
								JOINT Bip01_L_Foot
								{
									OFFSET 4.290367 -24.783169 -0.577965
									CHANNELS 3 Xrotation Yrotation Zrotation
									JOINT Bip01_L_Toe0
									{
										OFFSET 3.561245 -5.815111 -0.760799
										CHANNELS 3 Xrotation Yrotation Zrotation
										JOINT Bip01_L_Toe0Nub
										{
											OFFSET 6.574303 -0.000005 -1.538561
											CHANNELS 3 Xrotation Yrotation Zrotation
											End Site
											{
												OFFSET 0.000004 -6.751935 0.000023
											}
										}
									}
								}
							}
						}
					}
					JOINT Bip01_Spine1
					{
						OFFSET 20.556803 -4.626213 -0.000025
						CHANNELS 3 Xrotation Yrotation Zrotation
						JOINT Saddle
						{
							OFFSET 17.608810 18.174690 -0.000143
							CHANNELS 3 Xrotation Yrotation Zrotation
							End Site
							{
								OFFSET -0.000063 -0.000061 -22.448387
							}
						}
						JOINT BN_center
						{
							OFFSET 10.743275 -13.417107 -0.172041
							CHANNELS 3 Xrotation Yrotation Zrotation
							End Site
							{
								OFFSET 22.434088 0.553078 -0.579614
							}
						}
						JOINT Bip01_Spine2
						{
							OFFSET 24.765072 -2.054115 -0.000032
							CHANNELS 3 Xrotation Yrotation Zrotation
							JOINT Handle
							{
								OFFSET 63.735676 16.430748 -16.052464
								CHANNELS 3 Xrotation Yrotation Zrotation
								JOINT IK_Chain01
								{
									OFFSET -4.713058 -6.020439 0.185448
									CHANNELS 3 Xrotation Yrotation Zrotation
									End Site
									{
										OFFSET -0.000023 -0.000023 -7.648071
									}
								}
							}
							JOINT BN_hair04_01
							{
								OFFSET 1.987491 16.256981 -2.049672
								CHANNELS 3 Xrotation Yrotation Zrotation
								JOINT BN_hair04_02
								{
									OFFSET -1.318762 -3.831451 -6.174704
									CHANNELS 3 Xrotation Yrotation Zrotation
									JOINT BN_hair04_03
									{
										OFFSET -0.827490 -5.886627 -5.656666
										CHANNELS 3 Xrotation Yrotation Zrotation
										End Site
										{
											OFFSET -2.658262 5.010620 -5.929780
										}
									}
								}
							}
							JOINT Bip01_Neck
							{
								OFFSET 25.574577 9.433014 -0.000084
								CHANNELS 3 Xrotation Yrotation Zrotation
								JOINT Bip01_R_Clavicle
								{
									OFFSET -16.535652 0.011192 6.705692
									CHANNELS 3 Xrotation Yrotation Zrotation
									JOINT Bip01_R_UpperArm
									{
										OFFSET 20.272621 -12.959984 2.510816
										CHANNELS 3 Xrotation Yrotation Zrotation
										JOINT Bip01_R_Forearm
										{
											OFFSET -13.633509 -15.503704 -0.653585
											CHANNELS 3 Xrotation Yrotation Zrotation
											JOINT Bip01_R_Hand
											{
												OFFSET 2.580030 -27.804676 -1.136415
												CHANNELS 3 Xrotation Yrotation Zrotation
												JOINT Bip01_R_Finger0
												{
													OFFSET -0.281744 -19.659061 -0.398649
													CHANNELS 3 Xrotation Yrotation Zrotation
													JOINT Bip01_Xtra02
													{
														OFFSET 4.152210 -5.712314 0.433813
														CHANNELS 3 Xrotation Yrotation Zrotation
														JOINT Bip01_Xtra02Nub
														{
															OFFSET 15.457960 0.041654 0.507982
															CHANNELS 3 Xrotation Yrotation Zrotation
															End Site
															{
																OFFSET -15.421730 -0.157725 -1.163459
															}
														}
													}
													JOINT Bip01_R_Finger0Nub
													{
														OFFSET 8.362326 -9.718440 -0.143142
														CHANNELS 3 Xrotation Yrotation Zrotation
														End Site
														{
															OFFSET -1.213036 -0.198171 9.872291
														}
													}
												}
											}
										}
									}
								}
								JOINT Bip01_L_Clavicle
								{
									OFFSET -16.535673 0.011162 -6.705583
									CHANNELS 3 Xrotation Yrotation Zrotation
									JOINT Bip01_L_UpperArm
									{
										OFFSET 20.272615 -12.959999 -2.510836
										CHANNELS 3 Xrotation Yrotation Zrotation
										JOINT Bip01_L_Forearm
										{
											OFFSET -13.633495 -15.503681 0.653678
											CHANNELS 3 Xrotation Yrotation Zrotation
											JOINT Bip01_L_Hand
											{
												OFFSET 2.579988 -27.804686 1.136487
												CHANNELS 3 Xrotation Yrotation Zrotation
												JOINT Bip01_L_Finger0
												{
													OFFSET -0.281765 -19.659058 0.398696
													CHANNELS 3 Xrotation Yrotation Zrotation
													JOINT Bip01_Xtra01
													{
														OFFSET 4.083549 -5.738758 -0.666714
														CHANNELS 3 Xrotation Yrotation Zrotation
														JOINT Bip01_Xtra01Nub
														{
															OFFSET 6.758158 -0.395525 -0.023239
															CHANNELS 3 Xrotation Yrotation Zrotation
															End Site
															{
																OFFSET 6.764923 -0.254147 -0.029908
															}
														}
													}
													JOINT Bip01_L_Finger0Nub
													{
														OFFSET -0.012636 -9.629153 0.045740
														CHANNELS 3 Xrotation Yrotation Zrotation
														End Site
														{
															OFFSET 0.988407 0.004791 8.293357
														}
													}
												}
											}
										}
									}
								}
								JOINT BN_hair03_01
								{
									OFFSET -5.894140 16.270622 -2.498433
									CHANNELS 3 Xrotation Yrotation Zrotation
									JOINT BN_hair03_02
									{
										OFFSET -0.189278 -7.800507 -6.219162
										CHANNELS 3 Xrotation Yrotation Zrotation
										JOINT BN_hair03_03
										{
											OFFSET 0.612345 -10.844475 -3.370718
											CHANNELS 3 Xrotation Yrotation Zrotation
											End Site
											{
												OFFSET -2.273296 2.862007 -10.769416
											}
										}
									}
								}
								JOINT Bip01_Neck1
								{
									OFFSET 9.383755 11.908699 -0.000007
									CHANNELS 3 Xrotation Yrotation Zrotation
									JOINT BN_hair02_01
									{
										OFFSET 9.126320 18.808022 -1.420810
										CHANNELS 3 Xrotation Yrotation Zrotation
										JOINT BN_hair02_02
										{
											OFFSET 0.393478 -5.181091 -5.248574
											CHANNELS 3 Xrotation Yrotation Zrotation
											JOINT BN_hair02_03
											{
												OFFSET 0.762280 -8.167076 -0.230047
												CHANNELS 3 Xrotation Yrotation Zrotation
												End Site
												{
													OFFSET -0.025837 -1.251419 -8.109770
												}
											}
										}
									}
									JOINT Bip01_Head
									{
										OFFSET 14.266129 10.475403 -0.000008
										CHANNELS 3 Xrotation Yrotation Zrotation
										JOINT BN_Reins_01
										{
											OFFSET 18.547455 -15.740112 -0.000035
											CHANNELS 3 Xrotation Yrotation Zrotation
											JOINT BN_Reins_02
											{
												OFFSET -5.372810 -5.884506 0.000028
												CHANNELS 3 Xrotation Yrotation Zrotation
												JOINT BN_Reins_03
												{
													OFFSET -6.395866 -15.947449 0.000070
													CHANNELS 3 Xrotation Yrotation Zrotation
													JOINT BN_Halter_R_01
													{
														OFFSET -1.234055 -3.096100 7.096737
														CHANNELS 3 Xrotation Yrotation Zrotation
														End Site
														{
															OFFSET 10.514435 -4.176861 -0.000004
														}
													}
													JOINT BN_Halter_L_01
													{
														OFFSET -1.234062 -3.096146 -7.096726
														CHANNELS 3 Xrotation Yrotation Zrotation
														End Site
														{
															OFFSET -10.514435 4.176865 -0.000000
														}
													}
													JOINT BN_Reins_04
													{
														OFFSET -6.737644 -16.971684 0.000074
														CHANNELS 3 Xrotation Yrotation Zrotation
														JOINT BN_Halter_R_02
														{
															OFFSET -4.688869 -11.781956 7.096771
															CHANNELS 3 Xrotation Yrotation Zrotation
															End Site
															{
																OFFSET 14.669624 -5.827511 -0.000006
															}
														}
														JOINT BN_Halter_L_02
														{
															OFFSET -4.688892 -11.782017 -7.096693
															CHANNELS 3 Xrotation Yrotation Zrotation
															End Site
															{
																OFFSET -14.669624 5.827507 -0.000002
															}
														}
														JOINT BN_Reins_05
														{
															OFFSET -6.822578 -16.971161 0.000074
															CHANNELS 3 Xrotation Yrotation Zrotation
															JOINT BN_Reins_06
															{
																OFFSET -6.140354 -15.095148 0.000066
																CHANNELS 3 Xrotation Yrotation Zrotation
																End Site
																{
																	OFFSET -15.095150 6.140352 -0.000002
																}
															}
														}
													}
												}
											}
										}
										JOINT BN_hair01_01
										{
											OFFSET 8.957344 8.870956 0.112121
											CHANNELS 3 Xrotation Yrotation Zrotation
											JOINT BN_hair01_02
											{
												OFFSET 6.002075 -2.962952 -3.121264
												CHANNELS 3 Xrotation Yrotation Zrotation
												End Site
												{
													OFFSET 5.917702 3.813591 -2.232396
												}
											}
										}
										JOINT BN_Eyebrow_R
										{
											OFFSET 11.795959 -0.430496 4.449781
											CHANNELS 3 Xrotation Yrotation Zrotation
											JOINT Bip01_Xtra06Nub
											{
												OFFSET 2.936661 -0.262573 3.246701
												CHANNELS 3 Xrotation Yrotation Zrotation
												End Site
												{
													OFFSET 2.768745 0.208199 3.394807
												}
											}
										}
										JOINT BN_Eyebrow_L
										{
											OFFSET 11.586395 -0.445618 -4.441728
											CHANNELS 3 Xrotation Yrotation Zrotation
											JOINT Bip01_Xtra05Nub
											{
												OFFSET 3.244698 -0.349442 -4.416700
												CHANNELS 3 Xrotation Yrotation Zrotation
												End Site
												{
													OFFSET 3.053162 0.072495 -4.564033
												}
											}
										}
										JOINT Bip01_R_Ear_01
										{
											OFFSET 7.142960 7.567184 4.311657
											CHANNELS 3 Xrotation Yrotation Zrotation
											JOINT Bip01_Xtra04Nub
											{
												OFFSET 9.464531 9.264214 1.682953
												CHANNELS 3 Xrotation Yrotation Zrotation
												End Site
												{
													OFFSET 8.448181 10.159340 1.910823
												}
											}
										}
										JOINT Bip01__L_Ear_01
										{
											OFFSET 7.214943 7.717056 -4.356771
											CHANNELS 3 Xrotation Yrotation Zrotation
											JOINT Bip01_Xtra03Nub
											{
												OFFSET 9.230225 8.944366 -2.322746
												CHANNELS 3 Xrotation Yrotation Zrotation
												End Site
												{
													OFFSET 8.170288 9.841324 -2.643566
												}
											}
										}
										JOINT Bip01_Jaw
										{
											OFFSET 9.196068 -4.110695 -0.000013
											CHANNELS 3 Xrotation Yrotation Zrotation
											JOINT Bip01_Ponytail1Nub
											{
												OFFSET 10.976463 -21.082108 -0.000053
												CHANNELS 3 Xrotation Yrotation Zrotation
												End Site
												{
													OFFSET 11.247093 -20.938980 0.000113
												}
											}
										}
										JOINT Bip01_HeadNub
										{
											OFFSET 29.954575 -18.249489 -0.000063
											CHANNELS 3 Xrotation Yrotation Zrotation
											End Site
											{
												OFFSET -9.198448 -13.366348 0.000168
											}
										}
									}
								}
							}
						}
					}
				}
			}
		}
	}
}
MOTION
Frames: 5
Frame Time: 0.033333
0.000000 0.000000 0.000000 0.000008 0.000000 -0.000000 -0.000000 0.000000 -0.000000 0.000000 0.000000 -0.000006 0.003491 -0.000000 -0.000008 -1.738382 1.803875 35.018182 0.273882 -0.600190 22.970838 0.364590 -1.019969 18.046963 0.224001 -1.313064 8.074236 -0.000095 0.003496 -0.000002 0.143672 0.000484 10.382443 -6.188449 5.668398 -7.201961 0.531246 0.016599 -2.692626 0.031700 0.001724 -0.160766 6.394424 -4.508884 0.251807 0.000728 -0.000018 -0.003715 0.000101 -0.000137 0.000004 1.167102 -4.088693 -25.335234 1.989658 0.287934 10.192568 -0.033933 -0.001823 -0.172198 -4.321510 3.689628 5.055895 -0.000871 0.000035 -0.003712 -0.011664 -0.007889 -0.036945 0.143184 -0.019006 -11.498069 0.917530 -0.020778 6.784392 -0.004932 -0.187216 0.020290 -0.052408 1.540617 -5.471444 0.000078 -0.000112 -0.000056 -0.000052 -0.014928 0.015042 -0.000012 0.000010 0.000027 -1.358243 0.409827 -0.217202 4.628650 -0.695103 0.251137 3.912570 0.384486 -20.925963 -3.451295 -1.873367 20.031724 -3.207962 -0.975643 4.844459 -0.000582 -0.130194 3.174626 7.446949 1.278531 -1.144743 -3.074510 -0.038697 0.688097 -1.002535 -0.004123 -0.069893 -0.781881 0.140333 -0.478836 -0.804180 0.123475 -0.482653 -3.552863 -1.707594 20.499771 2.899527 -2.371097 6.291642 -0.001239 -0.031386 -0.766036 -8.638696 -2.083549 3.589020 4.960862 0.006871 -0.600853 2.691733 2.076474 -0.752314 0.036599 0.063819 2.451874 -0.000913 0.100574 2.451955 -0.000153 -0.000008 0.000240 -0.069513 0.076673 -0.318711 0.977684 -0.984692 3.792634 -0.126582 1.503369 -6.994504 -0.000066 0.000001 0.000084 1.575992 0.281607 -4.546331 -1.614457 -1.251522 -7.205564 -3.002041 -4.940461 29.017362 -0.000029 0.000324 33.480057 -0.441787 -0.458728 -72.796129 -0.000060 -0.000072 -21.993998 0.000020 -0.000008 -0.026805 0.000002 -0.000016 0.012750 -0.000096 -0.000109 -34.639899 0.000036 0.000015 0.015168 0.000025 -0.000010 0.012721 -0.000048 -0.000055 -24.223455 0.000013 -0.000013 -0.000048 -0.073023 0.030633 0.020258 7.012412 1.751778 7.564550 -8.277015 -15.533121 1.371276 0.024188 -0.030004 11.786592 0.012323 -0.002720 0.003925 0.023218 -0.032306 11.715983 0.089450 -0.130628 0.175095 0.050264 0.015085 11.755990 -0.154119 0.027254 -0.044368 0.022801 0.006701 11.747274 0.646568 0.597925 -1.496397 -0.004514 -0.052568 11.750689 0.000071 -0.000033 11.750675 
0.000000 0.000000 0.000000 0.000008 0.000000 -0.000000 -0.000000 0.000000 -0.000000 -0.931491 -0.699357 0.510016 0.034650 0.000000 -0.000001 -1.737709 1.805746 34.568578 0.544772 -0.868012 41.789218 0.239878 -1.577278 -9.114293 0.128374 -0.965312 12.721756 -0.001813 0.058384 0.146320 0.179789 0.578356 13.273461 -5.099125 6.121585 0.544924 3.086870 -0.255565 -15.735911 -1.472440 -0.178016 7.516254 5.073943 -5.444724 -4.738386 0.020660 -0.044833 -0.692501 0.000101 -0.000137 0.000004 3.288727 -8.017478 -0.089582 -3.925626 0.477009 -20.125463 -0.774930 -0.015893 -3.927044 -1.373350 7.388165 9.688602 0.287244 0.003238 1.310000 -0.011664 -0.007889 -0.036945 -0.045134 0.612381 -17.508198 0.917530 -0.020778 6.784391 -0.004948 -0.187216 0.020290 -0.396542 1.402314 7.737897 0.000078 -0.000112 -0.000057 -0.000052 -0.014927 0.015042 -0.000014 0.000009 0.000026 1.617902 -9.573314 10.981990 4.469228 -1.122887 0.753623 12.370389 0.623236 -14.767180 -11.574538 -3.674304 14.049386 -2.410606 -2.543231 7.915443 0.010322 0.156780 -3.831576 8.799465 1.431901 -6.612201 -3.201849 0.494674 -1.199796 -0.498929 -0.004372 -0.031686 -0.781908 0.140333 -0.478838 -0.804181 0.123474 -0.482653 -12.049670 -3.697013 13.634856 4.686010 -3.574074 9.589178 -0.018442 -0.227373 -5.563886 -9.508705 -0.072163 -3.795927 4.872225 -0.672889 -1.330373 1.012340 0.742922 -0.273404 0.036625 0.063820 2.451867 -0.000913 0.100573 2.451955 -0.000161 -0.000033 0.000224 1.012539 -2.811334 9.759322 -0.330881 -0.877786 2.972045 -5.208244 -4.648059 -31.507024 -0.000076 0.000003 0.000078 19.990077 -0.730166 11.535281 1.383684 -0.769409 -3.363697 -17.046404 11.820366 -1.159779 -0.000031 0.000325 33.480081 -0.441791 -0.458726 -72.796136 -0.000063 -0.000071 -21.993996 0.000019 -0.000006 -0.026808 0.000002 -0.000014 0.012745 -0.000096 -0.000105 -34.639882 0.000035 0.000015 0.015158 0.000025 -0.000009 0.012718 -0.000049 -0.000055 -24.223454 0.000013 -0.000013 -0.000050 -0.073037 0.030631 0.020264 19.816414 5.471886 34.344100 -11.632680 -7.081021 -9.796870 0.024209 -0.029989 11.786623 6.025898 0.902201 -9.166561 0.023223 -0.032300 11.715981 0.089445 -0.130630 0.175107 0.050279 0.015110 11.755988 -0.147350 0.043372 -0.044311 0.022807 0.006706 11.747251 3.099551 2.270247 -3.513359 -0.004495 -0.052590 11.750708 0.000071 -0.000031 11.750678 
0.000000 0.000000 0.000000 0.000008 0.000000 -0.000000 -0.000000 0.000000 -0.000000 -1.946297 -1.495297 0.873052 0.003491 -0.000000 -0.000008 -1.736518 1.812921 33.349539 1.118603 -0.885644 69.676303 -1.273571 -3.451428 -35.775967 -0.205042 -0.122780 17.281777 -0.011284 0.304045 0.797382 0.187975 0.991345 15.704113 -2.782134 6.604232 2.589259 4.708356 -0.747868 -24.313643 -3.334078 -0.695927 17.302522 3.877667 -6.274736 -10.148418 0.122946 -0.063373 -1.419772 0.000101 -0.000137 0.000004 4.268694 -10.214296 13.373035 -6.466543 1.609853 -34.207165 -1.400296 0.010045 -7.097876 0.293642 11.037702 12.349683 -0.000869 0.000036 -0.003699 -0.011664 -0.007888 -0.036945 0.119212 0.981254 -21.265031 0.917530 -0.020778 6.784391 -0.004991 -0.187204 0.020290 0.045200 0.966108 14.983965 0.000078 -0.000112 -0.000054 -0.000052 -0.014928 0.015042 -0.000015 0.000008 0.000027 12.626423 -23.590959 35.161226 4.537814 -2.496735 2.384272 17.180311 1.225259 -9.835798 -16.311875 -3.845119 9.515999 -1.988931 -3.596285 10.290713 0.029645 0.303809 -7.447820 9.592586 1.610664 -10.691518 -3.326550 1.038031 -3.054279 -0.005100 -0.003933 0.005726 -0.781935 0.140333 -0.478840 -0.804181 0.123474 -0.482653 -17.204089 -3.993499 7.927783 6.323043 -4.196344 13.215916 -0.036301 -0.342292 -8.399523 -10.721498 1.981041 -9.456088 5.159743 -1.378501 -1.358137 -0.003708 0.003226 -0.002354 0.036652 0.063820 2.451867 -0.000913 0.100572 2.451956 -0.000180 -0.000061 0.000215 4.114366 -6.863920 28.309737 -2.707394 -0.692436 1.495911 -9.263497 -7.803362 -47.579531 -0.000075 -0.000016 0.000072 56.139883 -1.425771 39.452699 7.854006 0.198108 4.366433 -17.914927 20.351606 -22.011623 -0.000033 0.000322 33.480071 -0.441785 -0.458722 -72.796136 -0.000059 -0.000072 -21.993996 0.000020 -0.000010 -0.026803 0.000001 -0.000018 0.012747 -0.000095 -0.000109 -34.639875 0.000036 0.000017 0.015166 0.000025 -0.000009 0.012721 -0.000048 -0.000056 -24.223461 0.000013 -0.000012 -0.000048 -0.073038 0.030633 0.020265 31.809236 26.129351 81.246480 -12.810622 -1.803859 -16.140951 0.024217 -0.030005 11.786661 9.655014 0.978661 -14.662664 0.023238 -0.032297 11.715967 0.089445 -0.130629 0.175100 0.050291 0.015135 11.756004 -0.144347 0.050526 -0.044296 0.022814 0.006729 11.747268 4.611811 3.197636 -5.330257 -0.004468 -0.052600 11.750689 0.000070 -0.000033 11.750675 
0.000000 0.000000 0.000000 0.000008 0.000000 -0.000000 -0.000000 0.000000 -0.000000 -2.966140 -2.305364 1.226206 -0.229223 0.079886 0.146293 -1.734469 1.823412 31.446877 0.161868 -0.597187 87.256718 -4.666481 -8.520505 -35.727360 0.887558 1.711780 -14.162269 -1.478628 2.669609 27.320229 0.250377 1.053449 17.509120 0.948321 7.239903 -3.241227 5.452424 -1.067084 -28.403531 -5.703669 -1.912207 30.770948 3.011986 -6.884344 -15.574351 0.283020 -0.067164 -2.147407 0.000101 -0.000137 0.000004 3.628582 -11.245217 8.496334 -7.491613 2.305867 -40.449002 2.097357 0.313996 10.753191 2.696867 12.441468 10.475688 -1.727916 0.117589 -7.946813 -0.011664 -0.007890 -0.036945 0.978716 0.815413 -20.739774 0.917530 -0.020778 6.784389 -0.005091 -0.187206 0.020311 2.262563 -0.091765 10.159467 0.000078 -0.000112 -0.000056 -0.000052 -0.014928 0.015041 -0.000035 0.000023 0.000047 21.589598 -27.876340 50.799515 5.708487 -5.014787 5.518011 15.470269 1.138303 -6.610268 -14.592791 -2.483874 7.350357 -2.302181 -2.679709 5.405375 0.008410 -0.288218 7.034428 9.551815 1.479520 -17.344977 -3.441975 1.598450 -4.934681 -0.005025 -0.003937 0.005739 -0.781990 0.140333 -0.478844 -0.804182 0.123474 -0.482653 -15.940873 -2.747561 4.450439 7.420392 -2.875662 11.630090 0.000917 0.113323 2.762835 -12.586929 4.495814 -15.817297 5.643939 -2.113420 -1.013642 -0.058938 0.156149 0.010783 0.036707 0.063820 2.451866 -0.000914 0.100573 2.451954 -0.000209 -0.000088 0.000217 6.274869 -8.310387 38.580952 -3.998712 -0.599001 0.696843 -8.107034 -9.626009 -48.114943 -0.000100 -0.000017 0.000072 76.731103 -0.789710 54.165377 14.526566 1.025704 11.041886 -8.897311 13.097546 -26.657877 -0.000032 0.000325 33.480068 -0.441785 -0.458726 -72.796143 -0.000060 -0.000072 -21.993993 0.000019 -0.000008 -0.026803 0.000003 -0.000016 0.012754 -0.000096 -0.000109 -34.639878 0.000036 0.000016 0.015166 0.000025 -0.000009 0.012723 -0.000048 -0.000053 -24.223462 0.000013 -0.000012 -0.000051 -0.073049 0.030638 0.020250 25.416107 40.041362 111.063725 -12.828342 -1.695194 -16.268018 0.024249 -0.029979 11.786705 9.708793 0.977141 -14.744121 0.023273 -0.032293 11.715923 0.089447 -0.130628 0.175100 0.050315 0.015179 11.756010 -0.144278 0.050679 -0.044288 0.022830 0.006747 11.747255 4.679514 3.136798 -6.890314 -0.004434 -0.052645 11.750686 0.000071 -0.000032 11.750671 
0.000000 0.000000 0.000000 0.000008 0.000000 -0.000000 -0.000000 0.000000 -0.000000 -3.882245 -3.022232 1.699655 -0.548166 0.186807 0.347659 -1.732610 1.838805 28.966562 -1.384736 -0.943853 99.969442 -6.839367 -12.408736 -34.378572 3.326484 0.478517 -62.044107 -4.578289 3.225270 53.198697 0.351761 0.982223 19.163790 4.824830 7.479764 -10.034432 5.767624 -1.221828 -30.175653 -7.457446 -3.363703 42.235161 2.058452 -7.165892 -20.545709 0.446758 -0.067970 -2.820831 0.000101 -0.000139 0.000004 1.945972 -11.819014 -4.783845 -6.992600 1.946685 -37.354206 5.817178 1.989568 31.461907 5.655631 12.303280 6.850862 -3.977035 0.641594 -18.622419 -0.011664 -0.007888 -0.036945 2.121455 0.496968 -18.761592 0.917530 -0.020778 6.784390 -0.004891 -0.187256 0.020290 4.971356 -1.779425 1.081506 0.000078 -0.000112 -0.000056 -0.000052 -0.014928 0.015042 -0.000045 0.000020 0.000039 19.198128 -27.006162 46.286228 9.775238 -10.024022 12.495327 11.856430 0.656848 -3.707915 -10.905924 -0.888373 5.574031 -3.348191 -1.182929 3.641549 0.130927 -0.852643 21.153226 9.350701 1.181485 -23.912110 -3.539848 2.167855 -6.832928 -0.004957 -0.003945 0.005741 -0.782096 0.140333 -0.478852 -0.804180 0.123475 -0.482653 -12.715277 -1.232483 1.384244 7.542258 -0.343577 13.367088 -0.042868 0.528989 12.966326 -14.265759 7.034647 -21.873365 6.138419 -2.852831 -0.673484 -0.114606 0.310612 0.024178 0.036814 0.063820 2.451866 -0.000913 0.100574 2.451955 -0.000272 -0.000164 0.000209 10.913759 -7.753206 36.198319 -0.789540 -1.785048 7.820748 -5.212429 -11.236617 -44.394867 -0.000130 -0.000050 0.000069 72.069752 -1.409320 44.042006 21.540479 1.444537 15.196175 2.772997 1.388923 -23.930828 -0.000030 0.000327 33.480078 -0.441787 -0.458730 -72.796143 -0.000060 -0.000071 -21.993995 0.000020 -0.000006 -0.026803 0.000002 -0.000013 0.012750 -0.000096 -0.000108 -34.639882 0.000036 0.000015 0.015165 0.000027 -0.000011 0.012720 -0.000048 -0.000054 -24.223459 0.000012 -0.000013 -0.000050 -0.073060 0.030641 0.020254 27.836680 33.055664 76.908941 -12.846006 -1.585395 -16.396291 0.024331 -0.029967 11.786776 9.763085 0.975562 -14.826358 0.023335 -0.032273 11.715823 0.089448 -0.130625 0.175101 0.050365 0.015272 11.756018 -0.144214 0.050832 -0.044296 0.022852 0.006799 11.747251 4.694638 3.027876 -8.564933 -0.004377 -0.052735 11.750686 0.000073 -0.000033 11.750674 
